<svg width="20" height="19" viewBox="0 0 20 19" fill="none" xmlns="http://www.w3.org/2000/svg">
<path d="M8.33464 14.2153V16.1665C8.33464 17.087 9.08083 17.8332 10.0013 17.8332C10.9218 17.8332 11.668 17.087 11.668 16.1665V14.2153M10.0013 1.1665V1.99984M2.5013 9.49984H1.66797M4.58464 4.08317L4.08455 3.58309M15.418 4.08317L15.9182 3.58309M18.3346 9.49984H17.5013M15.0013 9.49984C15.0013 12.2613 12.7627 14.4998 10.0013 14.4998C7.23988 14.4998 5.0013 12.2613 5.0013 9.49984C5.0013 6.73841 7.23988 4.49984 10.0013 4.49984C12.7627 4.49984 15.0013 6.73841 15.0013 9.49984Z" stroke="#282C2E" stroke-width="1.66667" stroke-linecap="round" stroke-linejoin="round"/>
</svg>
