<svg width="30" height="29" viewBox="0 0 30 29" fill="none" xmlns="http://www.w3.org/2000/svg">
<g id="instagram">
<rect id="bg" x="2.0625" y="1.8125" width="25.375" height="25.375" rx="5.4375" fill="url(#paint0_radial_3076_6431)"/>
<rect id="bg_2" x="2.0625" y="1.8125" width="25.375" height="25.375" rx="5.4375" fill="url(#paint1_radial_3076_6431)"/>
<rect id="bg_3" x="2.0625" y="1.8125" width="25.375" height="25.375" rx="5.4375" fill="url(#paint2_radial_3076_6431)"/>
<g id="instagram_2">
<path d="M21.0937 9.51562C21.0937 10.2664 20.4851 10.875 19.7344 10.875C18.9836 10.875 18.375 10.2664 18.375 9.51562C18.375 8.76486 18.9836 8.15625 19.7344 8.15625C20.4851 8.15625 21.0937 8.76486 21.0937 9.51562Z" fill="white"/>
<path fill-rule="evenodd" clip-rule="evenodd" d="M14.75 19.0312C17.2525 19.0312 19.2812 17.0025 19.2812 14.5C19.2812 11.9975 17.2525 9.96875 14.75 9.96875C12.2475 9.96875 10.2187 11.9975 10.2187 14.5C10.2187 17.0025 12.2475 19.0312 14.75 19.0312ZM14.75 17.2187C16.2515 17.2187 17.4687 16.0015 17.4687 14.5C17.4687 12.9985 16.2515 11.7812 14.75 11.7812C13.2485 11.7812 12.0312 12.9985 12.0312 14.5C12.0312 16.0015 13.2485 17.2187 14.75 17.2187Z" fill="white"/>
<path fill-rule="evenodd" clip-rule="evenodd" d="M5.6875 14.1375C5.6875 11.0922 5.6875 9.56957 6.28015 8.40643C6.80146 7.3833 7.6333 6.55146 8.65643 6.03015C9.81957 5.4375 11.3422 5.4375 14.3875 5.4375H15.1125C18.1578 5.4375 19.6804 5.4375 20.8436 6.03015C21.8667 6.55146 22.6985 7.3833 23.2198 8.40643C23.8125 9.56957 23.8125 11.0922 23.8125 14.1375V14.8625C23.8125 17.9078 23.8125 19.4304 23.2198 20.5936C22.6985 21.6167 21.8667 22.4485 20.8436 22.9698C19.6804 23.5625 18.1578 23.5625 15.1125 23.5625H14.3875C11.3422 23.5625 9.81957 23.5625 8.65643 22.9698C7.6333 22.4485 6.80146 21.6167 6.28015 20.5936C5.6875 19.4304 5.6875 17.9078 5.6875 14.8625V14.1375ZM14.3875 7.25H15.1125C16.665 7.25 17.7205 7.25141 18.5362 7.31806C19.3309 7.38299 19.7372 7.50066 20.0207 7.6451C20.7028 7.99264 21.2574 8.5472 21.6049 9.22928C21.7493 9.51276 21.867 9.91913 21.9319 10.7138C21.9986 11.5295 22 12.5849 22 14.1375V14.8625C22 16.415 21.9986 17.4705 21.9319 18.2862C21.867 19.0809 21.7493 19.4872 21.6049 19.7707C21.2574 20.4528 20.7028 21.0074 20.0207 21.3549C19.7372 21.4993 19.3309 21.617 18.5362 21.6819C17.7205 21.7486 16.665 21.75 15.1125 21.75H14.3875C12.8349 21.75 11.7795 21.7486 10.9638 21.6819C10.1691 21.617 9.76276 21.4993 9.47928 21.3549C8.7972 21.0074 8.24264 20.4528 7.8951 19.7707C7.75066 19.4872 7.63299 19.0809 7.56806 18.2862C7.50141 17.4705 7.5 16.415 7.5 14.8625V14.1375C7.5 12.5849 7.50141 11.5295 7.56806 10.7138C7.63299 9.91913 7.75066 9.51276 7.8951 9.22928C8.24264 8.5472 8.7972 7.99264 9.47928 7.6451C9.76276 7.50066 10.1691 7.38299 10.9638 7.31806C11.7795 7.25141 12.8349 7.25 14.3875 7.25Z" fill="white"/>
</g>
</g>
<defs>
<radialGradient id="paint0_radial_3076_6431" cx="0" cy="0" r="1" gradientUnits="userSpaceOnUse" gradientTransform="translate(11.125 20.8437) rotate(-55.3758) scale(23.1271)">
<stop stop-color="#B13589"/>
<stop offset="0.79309" stop-color="#C62F94"/>
<stop offset="1" stop-color="#8A3AC8"/>
</radialGradient>
<radialGradient id="paint1_radial_3076_6431" cx="0" cy="0" r="1" gradientUnits="userSpaceOnUse" gradientTransform="translate(10.2187 28.0937) rotate(-65.1363) scale(20.476)">
<stop stop-color="#E0E8B7"/>
<stop offset="0.444662" stop-color="#FB8A2E"/>
<stop offset="0.71474" stop-color="#E2425C"/>
<stop offset="1" stop-color="#E2425C" stop-opacity="0"/>
</radialGradient>
<radialGradient id="paint2_radial_3076_6431" cx="0" cy="0" r="1" gradientUnits="userSpaceOnUse" gradientTransform="translate(0.703127 2.71875) rotate(-8.1301) scale(35.2448 7.53851)">
<stop offset="0.156701" stop-color="#406ADC"/>
<stop offset="0.467799" stop-color="#6A45BE"/>
<stop offset="1" stop-color="#6A45BE" stop-opacity="0"/>
</radialGradient>
</defs>
</svg>
