<svg width="33" height="33" viewBox="0 0 33 33" fill="none" xmlns="http://www.w3.org/2000/svg">
<g id="linkedin">
<rect id="bg" x="2.28125" y="2.28125" width="28.4375" height="28.4375" rx="14.2188" fill="#1275B1"/>
<g id="linked_in">
<path d="M13.0657 10.0936C13.0657 11.0427 12.243 11.8122 11.2282 11.8122C10.2133 11.8122 9.39062 11.0427 9.39062 10.0936C9.39062 9.14444 10.2133 8.375 11.2282 8.375C12.243 8.375 13.0657 9.14444 13.0657 10.0936Z" fill="white"/>
<path d="M9.64191 13.0754H12.783V22.5938H9.64191V13.0754Z" fill="white"/>
<path d="M17.8402 13.0754H14.6991V22.5938H17.8402C17.8402 22.5938 17.8402 19.5972 17.8402 17.7237C17.8402 16.5991 18.2242 15.4697 19.7563 15.4697C21.4878 15.4697 21.4773 16.9413 21.4693 18.0814C21.4587 19.5717 21.4839 21.0925 21.4839 22.5938H24.625V17.5702C24.5984 14.3625 23.7626 12.8845 21.0127 12.8845C19.3797 12.8845 18.3674 13.6258 17.8402 14.2966V13.0754Z" fill="white"/>
</g>
</g>
</svg>
