<svg width="37" height="37" viewBox="0 0 37 37" fill="none" xmlns="http://www.w3.org/2000/svg">
<g id="youtube">
<path id="bg" d="M3.27507 11.6837C3.41967 9.45762 5.20944 7.71301 7.43752 7.60263C10.6639 7.44278 15.2754 7.25 18.75 7.25C22.2246 7.25 26.8361 7.44278 30.0625 7.60263C32.2906 7.71301 34.0803 9.45762 34.2249 11.6837C34.3635 13.8165 34.5 16.4409 34.5 18.5C34.5 20.5591 34.3635 23.1835 34.2249 25.3163C34.0803 27.5424 32.2906 29.287 30.0625 29.3974C26.8361 29.5572 22.2246 29.75 18.75 29.75C15.2754 29.75 10.6639 29.5572 7.43752 29.3974C5.20944 29.287 3.41967 27.5424 3.27507 25.3163C3.13653 23.1835 3 20.5591 3 18.5C3 16.4409 3.13653 13.8165 3.27507 11.6837Z" fill="#FC0D1B"/>
<path id="play" d="M15.375 14V23L24.375 18.5L15.375 14Z" fill="white"/>
</g>
</svg>
