<svg width="69" height="44" viewBox="0 0 69 44" fill="none" xmlns="http://www.w3.org/2000/svg">
<path d="M14.52 18.74C15.6667 18.74 16.5933 19.1067 17.3 19.84C18.0067 20.5733 18.36 21.58 18.36 22.86V29H16.2V23.08C16.2 22.3333 16 21.76 15.6 21.36C15.2 20.96 14.6533 20.76 13.96 20.76C13.2 20.76 12.5867 21 12.12 21.48C11.6533 21.9467 11.42 22.6667 11.42 23.64V29H9.26V15H11.42V20.28C12.0733 19.2533 13.1067 18.74 14.52 18.74ZM21.7858 24.92C21.9458 25.68 22.3124 26.2667 22.8858 26.68C23.4591 27.08 24.1591 27.28 24.9858 27.28C26.1324 27.28 26.9924 26.8667 27.5658 26.04L29.3458 27.08C28.3591 28.5333 26.8991 29.26 24.9658 29.26C23.3391 29.26 22.0258 28.7667 21.0258 27.78C20.0258 26.78 19.5258 25.52 19.5258 24C19.5258 22.5067 20.0191 21.26 21.0058 20.26C21.9924 19.2467 23.2591 18.74 24.8058 18.74C26.2724 18.74 27.4724 19.2533 28.4058 20.28C29.3524 21.3067 29.8258 22.5533 29.8258 24.02C29.8258 24.2467 29.7991 24.5467 29.7458 24.92H21.7858ZM21.7658 23.16H27.6458C27.4991 22.3467 27.1591 21.7333 26.6258 21.32C26.1058 20.9067 25.4924 20.7 24.7858 20.7C23.9858 20.7 23.3191 20.92 22.7858 21.36C22.2524 21.8 21.9124 22.4 21.7658 23.16ZM39.5586 29H37.0586L34.5786 25.58L32.0786 29H29.5586L33.3186 23.86L29.7586 19H32.2586L34.5586 22.16L36.8586 19H39.3786L35.8186 23.88L39.5586 29ZM47.6066 19H49.7666V29H47.6066V27.56C46.7932 28.6933 45.6266 29.26 44.1066 29.26C42.7332 29.26 41.5599 28.7533 40.5866 27.74C39.6132 26.7133 39.1266 25.4667 39.1266 24C39.1266 22.52 39.6132 21.2733 40.5866 20.26C41.5599 19.2467 42.7332 18.74 44.1066 18.74C45.6266 18.74 46.7932 19.3 47.6066 20.42V19ZM42.1866 26.3C42.7866 26.9 43.5399 27.2 44.4466 27.2C45.3532 27.2 46.1066 26.9 46.7066 26.3C47.3066 25.6867 47.6066 24.92 47.6066 24C47.6066 23.08 47.3066 22.32 46.7066 21.72C46.1066 21.1067 45.3532 20.8 44.4466 20.8C43.5399 20.8 42.7866 21.1067 42.1866 21.72C41.5866 22.32 41.2866 23.08 41.2866 24C41.2866 24.92 41.5866 25.6867 42.1866 26.3Z" fill="#0E7090"/>
<path d="M54.704 14.904C55.2747 14.904 55.76 15.1067 56.16 15.512C56.5653 15.9173 56.768 16.4133 56.768 17C56.768 17.5867 56.5653 18.0827 56.16 18.488C55.76 18.8933 55.2747 19.096 54.704 19.096C53.9947 19.096 53.456 18.8027 53.088 18.216V19H52.56V13.4H53.088V15.784C53.456 15.1973 53.9947 14.904 54.704 14.904ZM53.544 18.128C53.848 18.432 54.2213 18.584 54.664 18.584C55.1067 18.584 55.48 18.432 55.784 18.128C56.088 17.8187 56.24 17.4427 56.24 17C56.24 16.5573 56.088 16.184 55.784 15.88C55.48 15.5707 55.1067 15.416 54.664 15.416C54.2213 15.416 53.848 15.5707 53.544 15.88C53.24 16.184 53.088 16.5573 53.088 17C53.088 17.4427 53.24 17.8187 53.544 18.128ZM59.2539 14.904C59.8459 14.904 60.3233 15.1147 60.6859 15.536C61.0539 15.952 61.2379 16.4453 61.2379 17.016C61.2379 17.0747 61.2326 17.1573 61.2219 17.264H57.7099C57.7633 17.6693 57.9339 17.992 58.2219 18.232C58.5153 18.4667 58.8753 18.584 59.3019 18.584C59.6059 18.584 59.8673 18.5227 60.0859 18.4C60.3099 18.272 60.4779 18.1067 60.5899 17.904L61.0539 18.176C60.8779 18.4587 60.6379 18.6827 60.3339 18.848C60.0299 19.0133 59.6833 19.096 59.2939 19.096C58.6646 19.096 58.1526 18.8987 57.7579 18.504C57.3633 18.1093 57.1659 17.608 57.1659 17C57.1659 16.4027 57.3606 15.904 57.7499 15.504C58.1393 15.104 58.6406 14.904 59.2539 14.904ZM59.2539 15.416C58.8379 15.416 58.4886 15.5413 58.2059 15.792C57.9286 16.0373 57.7633 16.3573 57.7099 16.752H60.6939C60.6406 16.3307 60.4779 16.0027 60.2059 15.768C59.9339 15.5333 59.6166 15.416 59.2539 15.416ZM63.8406 15.512H62.6886V17.936C62.6886 18.1547 62.7313 18.312 62.8166 18.408C62.902 18.4987 63.03 18.5467 63.2006 18.552C63.3713 18.552 63.5846 18.5467 63.8406 18.536V19C63.2806 19.0853 62.8593 19.0453 62.5766 18.88C62.2993 18.7147 62.1606 18.4 62.1606 17.936V15.512H61.3206V15H62.1606V14.04L62.6886 13.88V15H63.8406V15.512ZM67.6784 15H68.2064V19H67.6784V18.216C67.3104 18.8027 66.7718 19.096 66.0624 19.096C65.4918 19.096 65.0038 18.8933 64.5984 18.488C64.1984 18.0827 63.9984 17.5867 63.9984 17C63.9984 16.4133 64.1984 15.9173 64.5984 15.512C65.0038 15.1067 65.4918 14.904 66.0624 14.904C66.7718 14.904 67.3104 15.1973 67.6784 15.784V15ZM64.9824 18.128C65.2864 18.432 65.6598 18.584 66.1024 18.584C66.5451 18.584 66.9184 18.432 67.2224 18.128C67.5264 17.8187 67.6784 17.4427 67.6784 17C67.6784 16.5573 67.5264 16.184 67.2224 15.88C66.9184 15.5707 66.5451 15.416 66.1024 15.416C65.6598 15.416 65.2864 15.5707 64.9824 15.88C64.6784 16.184 64.5264 16.5573 64.5264 17C64.5264 17.4427 64.6784 17.8187 64.9824 18.128Z" fill="#0E7090"/>
</svg>
